<svg width="25" height="25" viewBox="0 0 25 25" fill="none" xmlns="http://www.w3.org/2000/svg">
<path fill-rule="evenodd" clip-rule="evenodd" d="M25 12.5C25 10.864 24.6745 9.228 24.0485 7.7165C23.4225 6.205 22.4958 4.818 21.3388 3.66125C20.182 2.50425 18.795 1.5775 17.2835 0.9515C15.772 0.3255 14.136 0 12.5 0C10.864 0 9.228 0.3255 7.7165 0.9515C6.205 1.5775 4.818 2.50425 3.66125 3.66125C2.50425 4.818 1.5775 6.205 0.9515 7.7165C0.3255 9.228 0 10.864 0 12.5C0 14.136 0.3255 15.772 0.9515 17.2835C1.5775 18.795 2.50425 20.182 3.66125 21.3388C4.818 22.4958 6.205 23.4225 7.7165 24.0485C9.228 24.6745 10.864 25 12.5 25C14.136 25 15.772 24.6745 17.2835 24.0485C18.795 23.4225 20.182 22.4958 21.3388 21.3388C22.4958 20.182 23.4225 18.795 24.0485 17.2835C24.6745 15.772 25 14.136 25 12.5Z" fill="url(#paint0_linear)"/>
<path fill-rule="evenodd" clip-rule="evenodd" d="M11.854 6.85625H13.146V18.1443H11.854V6.85625Z" fill="white"/>
<path fill-rule="evenodd" clip-rule="evenodd" d="M11.1207 12.1663V10.8173C10.0845 10.3075 9.37098 9.24101 9.37098 8.00801C9.37098 6.28051 10.772 4.87951 12.5 4.87951C14.4402 4.87951 15.8412 6.28051 15.8412 8.00801C15.8412 8.44351 15.7517 8.85826 15.537 9.35101L14.9852 7.55726L13.8792 7.90301L14.86 11.636L18.6675 10.2353L18.2047 9.14351L16.7847 9.62951C17.0417 9.07226 17.0922 8.66251 17.0922 8.00801C17.0922 5.58901 15.1312 3.62801 12.5 3.62801C10.081 3.62801 8.11998 5.58901 8.11998 8.00801C8.11998 9.94501 9.37773 11.5883 11.1207 12.1663Z" fill="white"/>
<path fill-rule="evenodd" clip-rule="evenodd" d="M13.8792 12.8343V14.1833C14.9155 14.6933 15.629 15.7595 15.629 16.9925C15.629 18.72 14.228 20.121 12.5 20.121C10.5597 20.121 9.15874 18.72 9.15874 16.9925C9.15874 16.557 9.24824 16.1423 9.46299 15.6495L10.0147 17.4433L11.1207 17.0975L10.14 13.3645L6.33249 14.7655L6.79524 15.857L8.21524 15.371C7.95824 15.9283 7.90774 16.338 7.90774 16.9925C7.90774 19.4115 9.86874 21.3725 12.5 21.3725C14.919 21.3725 16.88 19.4115 16.88 16.9925C16.88 15.0555 15.6222 13.4123 13.8792 12.8343Z" fill="white"/>
<defs>
<linearGradient id="paint0_linear" x1="-12.5" y1="12.5" x2="12.5" y2="37.5" gradientUnits="userSpaceOnUse">
<stop stop-color="#0077FC"/>
<stop offset="1" stop-color="#095EB5"/>
</linearGradient>
</defs>
</svg>
