<svg width="24" height="24" viewBox="0 0 24 24" fill="#2F80ED" xmlns="http://www.w3.org/2000/svg">
<path d="M25 12.5c0-1.636-.326-3.272-.951-4.784a12.536 12.536 0 0 0-2.71-4.055 12.537 12.537 0 0 0-4.055-2.71A12.543 12.543 0 0 0 12.5 0c-1.636 0-3.272.326-4.784.952a12.536 12.536 0 0 0-4.055 2.71 12.536 12.536 0 0 0-2.71 4.054A12.543 12.543 0 0 0 0 12.5c0 1.636.326 3.272.952 4.784a12.537 12.537 0 0 0 2.71 4.055 12.536 12.536 0 0 0 4.054 2.71c1.512.625 3.148.951 4.784.951 1.636 0 3.272-.326 4.784-.951a12.537 12.537 0 0 0 4.055-2.71 12.537 12.537 0 0 0 2.71-4.055c.625-1.512.951-3.148.951-4.784z" fill="#2F80ED"/><path d="M11.854 6.856h1.292v11.288h-1.292V6.856z" fill="#fff"/><path fill-rule="evenodd" clip-rule="evenodd" d="M11.12 12.166v-1.349A3.13 3.13 0 0 1 12.5 4.88c1.94 0 3.341 1.4 3.341 3.128 0 .436-.09.85-.304 1.343l-.552-1.794-1.106.346.981 3.733 3.808-1.4-.463-1.092-1.42.486c.257-.558.307-.967.307-1.622 0-2.419-1.96-4.38-4.592-4.38a4.38 4.38 0 0 0-1.38 8.538zM13.88 12.834v1.35a3.13 3.13 0 0 1-1.38 5.937c-1.94 0-3.341-1.401-3.341-3.128 0-.436.09-.85.304-1.343l.552 1.793 1.106-.346-.981-3.733-3.808 1.401.463 1.092 1.42-.486c-.257.557-.307.967-.307 1.621 0 2.42 1.96 4.38 4.592 4.38a4.38 4.38 0 0 0 1.38-8.538z" />
</svg>
